<svg width="64" height="64" viewBox="0 0 64 64" xmlns="http://www.w3.org/2000/svg">
<path fill-rule="evenodd" d="M64 32C64 49.6731 49.6731 64 32 64C14.3269 64 0 49.6731 0 32C0 14.3269 14.3269 0 32 0C49.6731 0 64 14.3269 64 32ZM40 32C40 27.5817 36.4183 24 32 24C27.5817 24 24 27.5817 24 32C24 36.4183 27.5817 40 32 40C36.4183 40 40 36.4183 40 32ZM51 34C55.4183 34 59 30.4183 59 26C59 21.5817 55.4183 18 51 18C46.5817 18 43 21.5817 43 26C43 30.4183 46.5817 34 51 34ZM52 48C52 52.4183 48.4183 56 44 56C39.5817 56 36 52.4183 36 48C36 43.5817 39.5817 40 44 40C48.4183 40 52 43.5817 52 48ZM20 56C24.4183 56 28 52.4183 28 48C28 43.5817 24.4183 40 20 40C15.5817 40 12 43.5817 12 48C12 52.4183 15.5817 56 20 56ZM21 26C21 30.4183 17.4183 34 13 34C8.58172 34 5 30.4183 5 26C5 21.5817 8.58172 18 13 18C17.4183 18 21 21.5817 21 26ZM32 20C36.4183 20 40 16.4183 40 12C40 7.58172 36.4183 4 32 4C27.5817 4 24 7.58172 24 12C24 16.4183 27.5817 20 32 20Z" fill="#CD3100"/>
</svg>
